<svg xmlns="http://www.w3.org/2000/svg" preserveAspectRatio="xMidYMid" viewBox="0 0 256 308">
  <a>
    <path fill="#136a8f" d="M23 78l44.8-19.3V36L128 22l61.5 14v22.6l45.2 20.2c1.3 11 3.2 38.7-4.8 72l-4 14c-7 23-18 45-36 67.6-21 26.5-46 44-62 49.8-17-2.4-99.7-72-106.6-156.3-2.4-23-.3-40 1-48m231-8l-1-6-43-19V20l-82-19-81 19v25.4L5 63.4l-1 5c-.3 1.4-9 36.6 1.4 83.3 6 27.5 17.5 53.3 34 77 20.2 29 48.3 54.7 83.3 76l5.2 3.3 5-3c34-19.4 61-43.8 82-72.6 16-23 28-49 34-76.8 11.4-47.4 4.5-84.3 4.2-85.8"/>
  </a>
</svg>
